<svg width="20" height="20" viewBox="0 0 20 20" fill="none" xmlns="http://www.w3.org/2000/svg">
<path d="M2.5 6.66669L9.075 11.05C9.34888 11.2328 9.67075 11.3303 10 11.3303C10.3292 11.3303 10.6511 11.2328 10.925 11.05L17.5 6.66669M4.16667 15.8334H15.8333C16.2754 15.8334 16.6993 15.6578 17.0118 15.3452C17.3244 15.0326 17.5 14.6087 17.5 14.1667V5.83335C17.5 5.39133 17.3244 4.9674 17.0118 4.65484C16.6993 4.34228 16.2754 4.16669 15.8333 4.16669H4.16667C3.72464 4.16669 3.30072 4.34228 2.98816 4.65484C2.67559 4.9674 2.5 5.39133 2.5 5.83335V14.1667C2.5 14.6087 2.67559 15.0326 2.98816 15.3452C3.30072 15.6578 3.72464 15.8334 4.16667 15.8334Z" stroke="white" stroke-width="1.66667" stroke-linecap="round" stroke-linejoin="round"/>
</svg>
