<svg width="20" height="20" viewBox="0 0 20 20" fill="none" xmlns="http://www.w3.org/2000/svg">
<path d="M14.7138 13.8808L11.178 17.4167C11.0234 17.5715 10.8398 17.6942 10.6376 17.778C10.4355 17.8618 10.2189 17.9049 10.0001 17.9049C9.7813 17.9049 9.56466 17.8618 9.36254 17.778C9.16043 17.6942 8.97681 17.5715 8.82218 17.4167L5.28551 13.8808C4.3532 12.9485 3.71829 11.7606 3.46108 10.4674C3.20388 9.17419 3.33592 7.83376 3.84051 6.61561C4.34511 5.39745 5.19959 4.35628 6.29591 3.62376C7.39223 2.89123 8.68115 2.50024 9.99968 2.50024C11.3182 2.50024 12.6071 2.89123 13.7034 3.62376C14.7998 4.35628 15.6542 5.39745 16.1588 6.61561C16.6634 7.83376 16.7955 9.17419 16.5383 10.4674C16.2811 11.7606 15.6462 12.9485 14.7138 13.8808Z" stroke="white" stroke-width="1.66667" stroke-linecap="round" stroke-linejoin="round"/>
<path d="M12.5 9.16666C12.5 9.8297 12.2366 10.4656 11.7678 10.9344C11.2989 11.4033 10.663 11.6667 10 11.6667C9.33696 11.6667 8.70107 11.4033 8.23223 10.9344C7.76339 10.4656 7.5 9.8297 7.5 9.16666C7.5 8.50362 7.76339 7.86773 8.23223 7.39889C8.70107 6.93005 9.33696 6.66666 10 6.66666C10.663 6.66666 11.2989 6.93005 11.7678 7.39889C12.2366 7.86773 12.5 8.50362 12.5 9.16666Z" stroke="white" stroke-width="1.66667" stroke-linecap="round" stroke-linejoin="round"/>
</svg>
