<svg width="62" height="62" viewBox="0 0 62 62" fill="none" xmlns="http://www.w3.org/2000/svg">
<g clip-path="url(#clip0_29_1066)">
<path d="M31.0001 0C31.8222 0 32.6107 0.326607 33.1921 0.907969C33.7734 1.48933 34.1 2.27783 34.1 3.10001C34.1 3.92217 33.7734 4.71068 33.1921 5.29204C32.6107 5.8734 31.8222 6.2 31.0001 6.2C26.0951 6.2 21.3002 7.6545 17.2219 10.3796C13.1435 13.1046 9.96485 16.9779 8.08779 21.5094C6.21073 26.0411 5.71962 31.0276 6.67653 35.8383C7.63345 40.649 9.99543 45.068 13.4638 48.5364C16.9321 52.0047 21.351 54.3666 26.1619 55.3235C30.9726 56.2805 35.959 55.7893 40.4906 53.9123C45.0223 52.0352 48.8954 48.8565 51.6204 44.7782C54.3455 40.6998 55.8001 35.9051 55.8001 31.0001C55.8001 30.1778 56.1267 29.3893 56.7081 28.8081C57.2894 28.2266 58.0778 27.9 58.9001 27.9C59.7222 27.9 60.5107 28.2266 61.0921 28.8081C61.6734 29.3893 62 30.1778 62 31.0001C62 48.1214 48.1214 62 31.0001 62C13.8787 62 0 48.1214 0 31.0001C0 13.8787 13.8787 0 31.0001 0ZM31.0001 12.4C31.8222 12.4 32.6107 12.7266 33.1921 13.308C33.7734 13.8893 34.1 14.6779 34.1 15.5C34.1 16.3222 33.7734 17.1107 33.1921 17.692C32.6107 18.2734 31.8222 18.6 31.0001 18.6C28.5475 18.6 26.1501 19.3273 24.111 20.6897C22.0717 22.0524 20.4825 23.989 19.544 26.2547C18.6054 28.5205 18.3598 31.0139 18.8383 33.4192C19.3167 35.8246 20.4978 38.0341 22.2319 39.7681C23.9661 41.5024 26.1756 42.6833 28.581 43.1617C30.9863 43.6403 33.4795 43.3946 35.7453 42.4562C38.0112 41.5177 39.9478 39.9283 41.3103 37.8892C42.6727 35.8499 43.4 33.4525 43.4 31.0001C43.4 30.1778 43.7266 29.3893 44.308 28.8081C44.8893 28.2266 45.6779 27.9 46.5 27.9C47.3222 27.9 48.1108 28.2266 48.6921 28.8081C49.2735 29.3893 49.6001 30.1778 49.6001 31.0001C49.6001 34.6788 48.5092 38.2749 46.4655 41.3337C44.4215 44.3925 41.5167 46.7764 38.118 48.1843C34.7192 49.5919 30.9794 49.9604 27.3714 49.2426C23.7634 48.525 20.449 46.7536 17.8478 44.1522C15.2466 41.551 13.4751 38.2368 12.7574 34.6288C12.0397 31.0207 12.4081 27.2808 13.8159 23.8821C15.2236 20.4835 17.6077 17.5785 20.6665 15.5347C23.7253 13.4909 27.3214 12.4 31.0001 12.4ZM51.3701 0.310001C51.7812 0.310001 52.1755 0.473304 52.4662 0.763985C52.7569 1.05467 52.9202 1.44892 52.9202 1.86V7.53301C52.921 7.94355 53.0846 8.33701 53.3752 8.62702C53.6659 8.91704 54.0597 9.07992 54.4702 9.07992H60.14C60.5511 9.07992 60.9454 9.24321 61.2361 9.53389C61.5268 9.82457 61.6901 10.2188 61.6901 10.6299V13.4664L55.8373 19.3193C54.6748 20.482 53.098 21.1354 51.4538 21.1358H45.2538L33.1949 33.1917C32.6101 33.7564 31.827 34.0689 31.0142 34.0618C30.2014 34.0548 29.4239 33.7287 28.8492 33.154C28.2744 32.5792 27.9484 31.8018 27.9413 30.9889C27.9343 30.1761 28.2467 29.3931 28.8114 28.8083L40.8704 16.7524V10.5524C40.87 8.90865 41.5223 7.33198 42.6839 6.16901L48.5429 0.310001H51.3701Z" fill="white"/>
</g>
<defs>
<clipPath id="clip0_29_1066">
<rect width="62" height="62" fill="white"/>
</clipPath>
</defs>
</svg>
