<svg width="62" height="62" viewBox="0 0 62 62" fill="none" xmlns="http://www.w3.org/2000/svg">
<g clip-path="url(#clip0_29_1056)">
<path d="M10.6574 0L7.53964 3.27801L12.1786 8.16005L15.2919 4.88204L10.6574 0ZM51.3449 0L46.706 4.88204L49.8214 8.16005L54.4581 3.28034L51.3449 0ZM31 1.45482C30.2693 1.46104 29.5311 1.51078 28.7857 1.60403H28.7193C19.7381 2.68815 12.5904 10.3283 11.3482 19.7427C10.3562 27.3199 13.3234 34.1905 18.2679 38.6156C20.2901 40.4334 21.658 42.9273 22.1429 45.6801V59.6687H27.1914C27.962 61.0605 29.3682 62.0002 31 62.0002C32.6318 62.0002 34.038 61.0605 34.8086 59.6687H39.8571V50.343H40.0653V47.5732C40.0653 44.1553 41.7526 40.7094 44.4939 38.0305C48.1607 34.165 50.9286 28.6743 50.9286 22.3679C50.9286 10.8505 41.9253 1.34757 31 1.45482ZM31 6.11771C39.5583 5.99181 46.5 13.3685 46.5 22.3679C46.5 27.2499 44.3521 31.5491 41.3784 34.6779L41.4491 34.7525C38.4951 37.6228 36.5844 41.4881 36.0463 45.6823H26.361C25.8738 41.6862 24.2464 37.8184 21.1707 35.044C17.2581 31.5469 14.9265 26.2776 15.7059 20.3278C16.6736 12.9838 22.3333 7.07826 29.2684 6.26925C29.8411 6.18564 30.4177 6.13582 30.9956 6.12004L31 6.11771ZM0 22.3679V27.0308H6.64286V22.3679H0ZM55.3571 22.3679V27.0308H62V22.3679H55.3571ZM12.1786 41.2386L7.54186 46.1184L10.6574 49.3986L15.2896 44.5166L12.1786 41.2386ZM49.8214 41.2386L46.7081 44.5166L51.3427 49.3986L54.4581 46.1184L49.8214 41.2386ZM26.5714 50.3452H35.4286V55.0081H26.5714V50.3452Z" fill="white"/>
</g>
<defs>
<clipPath id="clip0_29_1056">
<rect width="62" height="62" fill="white"/>
</clipPath>
</defs>
</svg>
